<svg xmlns="http://www.w3.org/2000/svg" width="66" height="65" viewBox="0 0 66 65" fill="none" class="w-16">
                        <g clip-path="url(#clip0_6_989)">
                            <path d="M61.8039 48.9416C60.6434 47.2621 58.6781 46.8503 56.5445 47.8386L41.6688 54.2893L41.6693 54.2445C41.6697 54.2091 41.6682 54.1736 41.6647 54.1384C41.4044 51.5613 39.4042 49.5079 36.8004 49.1452C36.7922 49.1439 36.7839 49.1429 36.7755 49.142L26.8851 48.0205C24.796 47.7273 23.7677 47.0392 21.8323 45.9235C18.9682 44.2734 15.7003 43.4012 12.382 43.4012H11.7653V42.4155C11.7653 40.9647 10.5668 39.7843 9.09357 39.7843H6.19795C4.72481 39.7843 3.52637 40.9647 3.52637 42.4155V60.6284C3.52637 62.0792 4.72481 63.2596 6.19795 63.2596H9.0937C10.5142 63.2596 11.6761 62.1612 11.7574 60.782L21.4387 64.331C22.6501 64.7749 23.9197 65 25.2119 65H38.552C40.597 65 42.591 64.4325 44.3204 63.3588L61.0024 54.0898C62.1705 53.4402 63.1933 50.9528 61.8039 48.9416V48.9416ZM59.9534 52.4862L43.3491 61.712C43.3347 61.72 43.3206 61.7284 43.3066 61.7371C41.8826 62.6259 40.2384 63.0957 38.552 63.0957H25.2119C24.1507 63.0957 23.108 62.9109 22.1131 62.5461L11.7653 58.7529V51.8449C11.7653 51.3189 11.3324 50.8927 10.7985 50.8927C10.2646 50.8927 9.83169 51.3189 9.83169 51.8449V60.6285C9.83169 61.0293 9.50066 61.3554 9.09357 61.3554H6.19795C5.79099 61.3554 5.45996 61.0294 5.45996 60.6285V42.4157C5.45996 42.0149 5.79099 41.6887 6.19795 41.6887H9.0937C9.50066 41.6887 9.83182 42.0148 9.83182 42.4157V47.3922C9.83182 47.9182 10.2647 48.3444 10.7986 48.3444C11.3325 48.3444 11.7654 47.9182 11.7654 47.3922V45.3055H12.3822C15.3578 45.3055 18.2879 46.0875 20.8563 47.5672C22.9082 48.7484 24.1547 49.5631 26.6265 49.9077C26.6347 49.909 26.643 49.91 26.6514 49.9109L36.5414 51.0324C38.2377 51.2738 39.5434 52.603 39.7354 54.2769L39.7287 54.8048C33.9827 54.7393 31.7968 54.9934 28.12 54.4648L26.408 54.2186C25.88 54.1431 25.3887 54.5028 25.3117 55.0231C25.2346 55.5435 25.6003 56.027 26.1287 56.1029L27.8407 56.349C31.7468 56.9109 33.9997 56.6367 40.6836 56.7091C40.8174 56.7091 40.9583 56.6784 41.0731 56.6283L57.3353 49.5765C57.3433 49.573 57.3512 49.5694 57.359 49.5658C58.2348 49.158 59.4396 48.9045 60.2054 50.0128C60.7417 50.7894 60.6296 51.8362 59.9534 52.4862V52.4862Z" fill="#515151"/>
                            <path d="M15.4995 22.0303C16.2796 22.6487 16.5607 23.6823 16.1992 24.6022C15.2242 27.0813 16.8278 29.8078 19.4896 30.2152C20.1411 30.3149 20.6951 30.6778 21.0427 31.1915L16.5155 39.837C16.2438 40.3561 16.3016 40.9645 16.6666 41.4248C17.0315 41.8849 17.6166 42.0874 18.194 41.9538L23.132 40.8084L25.0474 45.4347C25.2713 45.9756 25.7784 46.3276 26.3709 46.3535C26.3942 46.3545 26.4174 46.355 26.4405 46.355C27.0051 46.355 27.5108 46.0528 27.772 45.5541L32.0091 37.4626C32.6655 37.618 33.3396 37.6182 33.9969 37.4626L38.234 45.5541C38.495 46.0528 39.0009 46.355 39.5655 46.355C39.5886 46.355 39.6118 46.3545 39.6351 46.3535C40.2274 46.3276 40.7345 45.9754 40.9586 45.4347L42.874 40.8084L47.812 41.9538C48.3894 42.0878 48.9745 41.8851 49.3394 41.4248C49.7043 40.9645 49.7622 40.3561 49.4905 39.837L44.9633 31.1915C45.3108 30.6778 45.8649 30.3149 46.5162 30.2152C49.1836 29.8069 50.7795 27.0762 49.8068 24.6022C49.4451 23.6823 49.7263 22.6487 50.5065 22.0303C52.6077 20.3645 52.6068 17.214 50.5065 15.5488C49.7264 14.9304 49.4452 13.8968 49.8068 12.977C50.7815 10.4979 49.178 7.77143 46.5164 7.36404C45.5266 7.21259 44.7583 6.45594 44.6045 5.48133C44.1901 2.85441 41.4172 1.28248 38.9052 2.24059C37.9709 2.59682 36.9217 2.31981 36.2937 1.55149C34.6009 -0.519621 31.4017 -0.515051 29.7127 1.55149C29.0846 2.31981 28.0353 2.59657 27.1013 2.24059C24.5841 1.28057 21.8155 2.85987 21.4019 5.48133C21.2482 6.45594 20.4799 7.21259 19.4903 7.36404C16.8229 7.77232 15.2271 10.503 16.1997 12.977C16.5614 13.8968 16.2802 14.9304 15.5 15.5488C13.3969 17.216 13.4009 20.3667 15.4995 22.0303V22.0303ZM26.4834 43.8598L24.7828 39.7519C24.5019 39.0738 23.7728 38.7032 23.0485 38.8713L18.6642 39.8883L21.9546 33.6047C22.9917 35.3045 25.1504 36.0826 27.1008 35.3385C28.0346 34.9819 29.0841 35.2592 29.7123 36.0278C29.8854 36.2395 30.0776 36.4306 30.284 36.6022L26.4834 43.8598ZM42.9569 38.8713C42.2331 38.7041 41.5037 39.0739 41.2227 39.7521L39.522 43.8598L35.7215 36.6022C35.9279 36.4307 36.1201 36.2397 36.2932 36.0278C36.9214 35.2595 37.9709 34.9828 38.9046 35.3385C40.8553 36.0825 43.0138 35.3043 44.0508 33.6047L47.3411 39.8883L42.9569 38.8713ZM16.7118 17.0324C18.1507 15.8919 18.6693 13.9858 18.0023 12.2896C17.4737 10.9453 18.3431 9.46677 19.7866 9.24587C21.6117 8.96657 23.0285 7.57123 23.3121 5.7737C23.5368 4.34979 25.0402 3.49654 26.4026 4.01641C28.1252 4.67327 30.0603 4.16266 31.2184 2.74561C32.1364 1.62246 33.871 1.62487 34.7871 2.74561C35.945 4.16241 37.8804 4.67314 39.603 4.01641C40.9675 3.49578 42.4691 4.35208 42.6934 5.7737C42.977 7.5711 44.3938 8.96644 46.219 9.24587C47.6653 9.46715 48.5308 10.9479 48.0032 12.2896C47.3362 13.9858 47.8548 15.8919 49.2935 17.0324C50.4337 17.9362 50.4315 19.6449 49.2935 20.5469C47.8547 21.6874 47.3361 23.5935 48.0032 25.2898C48.5317 26.6341 47.6622 28.1126 46.2188 28.3335C44.3938 28.6128 42.977 30.0082 42.6934 31.8057C42.469 33.2277 40.9678 34.0831 39.6029 33.5629C37.8807 32.9065 35.9451 33.4169 34.7871 34.8338C33.8694 35.9567 32.1344 35.9545 31.2184 34.8338C30.0622 33.4191 28.1276 32.9051 26.4025 33.5629C25.0381 34.0836 23.5364 33.2274 23.3121 31.8057C23.0285 30.0083 21.6117 28.6129 19.7865 28.3335C18.3402 28.1122 17.4747 26.6315 18.0023 25.2898C18.6693 23.5935 18.1507 21.6874 16.7118 20.5469C15.5716 19.6429 15.5741 17.9343 16.7118 17.0324V17.0324Z" fill="#515151"/>
                            <path d="M20.8183 20.0793C20.2935 20.176 19.9475 20.6734 20.0457 21.1903C21.2103 27.3218 26.6595 31.7723 33.0029 31.7723C40.2716 31.7723 46.1852 25.9483 46.1852 18.7897C46.1852 11.6311 40.2716 5.80709 33.0029 5.80709C26.6604 5.80709 21.2113 10.2567 20.046 16.3871C19.9478 16.9039 20.2935 17.4013 20.8184 17.4982C21.3437 17.5947 21.8483 17.2543 21.9466 16.7375C22.9407 11.5075 27.5905 7.71139 33.0029 7.71139C39.2054 7.71139 44.2516 12.6811 44.2516 18.7897C44.2516 24.8983 39.2054 29.868 33.0029 29.868C27.5897 29.868 22.9398 26.0714 21.9463 20.8402C21.8482 20.3233 21.3433 19.9837 20.8183 20.0793V20.0793Z" fill="#515151"/>
                            <path d="M40.1219 15.2509L35.8217 15.0632L34.3117 11.0933C33.8587 9.90285 32.1469 9.90311 31.694 11.0934L30.1841 15.0634L25.8838 15.251C24.5958 15.307 24.0638 16.9096 25.0749 17.7029L28.442 20.344L27.2943 24.4298C26.9501 25.6553 28.3351 26.6459 29.4121 25.9453L33.0029 23.6077L36.594 25.9454C37.667 26.6435 39.057 25.6594 38.7117 24.4298L37.564 20.344L40.931 17.7029C41.941 16.9103 41.4111 15.3069 40.1219 15.2509V15.2509ZM36.0822 19.0717C35.6432 19.4161 35.4563 19.9828 35.6059 20.5154L36.4666 23.5794L33.7737 21.8263C33.7737 21.8263 33.7735 21.8262 33.7734 21.8262C33.5394 21.6739 33.2712 21.5978 33.0029 21.5978C32.7347 21.5978 32.4663 21.6739 32.2321 21.8263L29.5391 23.5794L30.3998 20.5155C30.5496 19.9828 30.3625 19.4161 29.9235 19.0717L27.3985 17.0909L30.6237 16.9503C31.1842 16.9258 31.6736 16.5755 31.8705 16.058L33.0028 13.081L34.1352 16.0582C34.3321 16.5755 34.8215 16.9258 35.3823 16.9503L38.6071 17.0909L36.0822 19.0717Z" fill="#515151"/>
                        </g>
                        <defs>
                            <clipPath id="clip0_6_989"><rect width="66" height="65" fill="white"/></clipPath>
                        </defs>
                    </svg>