<svg xmlns="http://www.w3.org/2000/svg" width="67" height="66" viewBox="0 0 67 66" fill="none">
                    <g clip-path="url(#clip0_2582_9847)">
                        <path d="M0.120718 24.833L4.32814 40.0756C4.79177 42.196 6.33346 44.05 7.85469 44.8824C13.5839 48.032 13.706 47.9278 14.8286 49.3775C15.3561 50.0588 15.6684 50.8679 15.7313 51.7179L15.7809 52.3871L15.2855 52.4229C14.1436 52.5049 13.2864 53.4823 13.3707 54.6077L14.072 64.0415C14.1518 65.1166 15.0719 65.9585 16.1658 65.9585H30.5557C31.1328 65.9585 31.6894 65.7198 32.0825 65.3034C32.4751 64.8865 32.6765 64.3225 32.6346 63.755L31.8551 53.2739C31.7712 52.152 30.7842 51.3055 29.6371 51.3871L29.1055 51.4259C28.8852 49.2692 28.4946 47.1584 27.9426 45.1382C27.1835 42.3637 26.4847 41.4457 23.3083 37.5655C23.3048 37.5604 23.3007 37.5559 23.2966 37.5514C22.104 36.1505 21.2003 35.7995 15.0008 32.3916C13.5864 31.6136 12.3146 31.8286 11.393 32.377L12.0258 23.4321C12.173 21.419 10.639 19.6722 8.59486 19.5272C7.52857 19.4517 6.51646 19.8253 5.77679 20.5207C4.94103 19.9068 3.90183 19.6984 2.76755 19.9663C2.75732 19.9688 2.7471 19.9713 2.73688 19.9738C0.00621663 20.7115 -0.200806 23.3415 0.107428 24.7791C0.111517 24.7972 0.115607 24.8153 0.120718 24.833ZM29.7807 53.3156C29.7838 53.3156 29.7869 53.3151 29.7894 53.3151C29.816 53.3151 29.8395 53.3242 29.86 53.3413C29.8825 53.3605 29.8952 53.3856 29.8973 53.4148L30.6768 63.8965C30.6799 63.9313 30.6686 63.9615 30.6446 63.9866C30.6211 64.0123 30.5909 64.0249 30.5557 64.0249H16.1663C16.0947 64.0249 16.0349 63.9705 16.0298 63.9005L15.328 54.4662C15.3259 54.437 15.3346 54.4108 15.3546 54.3882C15.374 54.366 15.399 54.3534 15.4292 54.3514C16.7608 54.2552 28.0525 53.4405 29.7807 53.3156ZM8.45429 21.4557C9.41529 21.5242 10.1376 22.3455 10.0686 23.2931L9.69746 28.3628C9.62385 28.1891 7.08539 22.1421 7.02609 22.0278C7.37931 21.6335 7.89917 21.4165 8.45429 21.4557ZM3.24089 21.843C3.99128 21.6707 4.60366 21.9009 5.06576 22.559C5.27841 22.8616 4.79637 21.7941 9.94333 33.9777C9.48481 35.005 9.43727 36.5392 10.9023 37.6329C12.4864 38.8157 16.2501 41.6492 16.2879 41.6774C16.7194 42.0026 17.3353 41.9191 17.6635 41.4961C17.9927 41.0721 17.9104 40.4653 17.4795 40.1411C17.4417 40.1124 13.6754 37.2769 12.0877 36.0916C11.3603 35.5488 11.6215 34.9058 11.8433 34.5699C11.8464 34.5654 11.849 34.5598 11.8525 34.5548C11.8546 34.5513 11.8577 34.5482 11.8597 34.5447C11.8617 34.5417 12.0841 34.222 12.4491 34.0074C12.9316 33.7235 13.4387 33.7466 14.0444 34.08C20.0716 37.3927 20.8629 37.7034 21.7871 38.787C24.965 42.6688 25.4082 43.3028 26.0477 45.6412C26.5681 47.5436 26.9371 49.5331 27.1477 51.5669L17.7392 52.2461L17.6891 51.5769C17.5981 50.3518 17.1482 49.1856 16.3892 48.2052C14.9666 46.3673 14.4135 46.2737 8.83256 43.2061C8.18337 42.8038 6.67798 41.6748 6.24298 39.6481C6.23991 39.6345 6.23685 39.6204 6.23276 39.6068C6.23173 39.6023 6.23071 39.5972 6.22918 39.5927L2.02278 24.3546C1.9415 23.9558 1.69767 22.271 3.24089 21.843Z" fill="#515151"/>
                        <path d="M64.2625 19.9739C64.2523 19.9714 64.2421 19.9689 64.2319 19.9664C63.0976 19.6985 62.0589 19.907 61.2231 20.5213C60.483 19.8249 59.4709 19.4513 58.4046 19.5273C56.3609 19.6723 54.8264 21.4191 54.9736 23.4322L55.5389 31.1621C55.562 31.4778 55.6274 31.7854 55.7311 32.0825L55.6064 32.3771C54.6848 31.8293 53.413 31.6137 51.9986 32.3917C45.8027 35.7982 44.8964 36.1491 43.7028 37.5515C43.6988 37.556 43.6947 37.561 43.6906 37.5656C40.5147 41.4458 39.8159 42.3638 39.0568 45.1383C38.5043 47.158 38.1142 49.2688 37.8939 51.426L37.3623 51.3872C36.2209 51.3036 35.2277 52.1516 35.1449 53.274L34.3648 63.7556C34.3229 64.3226 34.5243 64.8866 34.9169 65.3035C35.31 65.7199 35.8666 65.9586 36.4437 65.9586H41.7072C42.2491 65.9586 42.6887 65.5256 42.6887 64.9918C42.6887 64.4581 42.2491 64.025 41.7072 64.025H36.4437C36.4085 64.025 36.3788 64.0124 36.3548 63.9868C36.3308 63.9616 36.32 63.9314 36.3226 63.8966L37.1021 53.415C37.1047 53.3853 37.117 53.3606 37.1394 53.3414C37.1624 53.3223 37.1895 53.3143 37.2187 53.3158C37.693 53.3495 51.4936 54.346 51.5707 54.3515C51.6306 54.3556 51.676 54.4074 51.6714 54.4664L50.9701 63.9007C50.9645 63.9706 50.9047 64.025 50.8336 64.025H46.2868C45.745 64.025 45.3054 64.4581 45.3054 64.9918C45.3054 65.5261 45.745 65.9586 46.2868 65.9586H50.8336C51.9275 65.9586 52.8476 65.1167 52.9274 64.0416L53.6292 54.6078C53.7125 53.4855 52.8533 52.5051 51.7139 52.423L51.2186 52.3872C51.2753 51.6188 51.2697 50.5423 52.1709 49.3776C53.2934 47.9284 53.4145 48.0326 59.1452 44.8825C59.159 44.8749 59.1723 44.8674 59.1856 44.8588C60.0342 44.3387 62.0686 42.8326 62.6713 40.0757L66.8792 24.8331C66.8838 24.8155 66.8884 24.7973 66.892 24.7792C67.2002 23.3416 66.9932 20.7116 64.2625 19.9739ZM59.9733 22.0279C59.7653 22.4282 60.1747 21.5631 57.302 28.3629L56.9309 23.2933C56.8118 21.6628 58.8748 20.8028 59.9733 22.0279ZM64.9766 24.3547L60.7702 39.5928C60.7692 39.5974 60.7677 39.6019 60.7667 39.6064C60.7631 39.6205 60.7595 39.6346 60.7564 39.6482C60.3219 41.675 58.816 42.8039 58.1669 43.2057C52.6238 46.2531 52.042 46.3553 50.6103 48.2048C49.3431 49.8419 49.3242 51.3933 49.2608 52.2457L39.8517 51.567C40.0623 49.5327 40.4319 47.5432 40.9517 45.6413C41.5917 43.3024 42.0344 42.6689 45.2123 38.7867C46.137 37.703 46.9293 37.3924 52.955 34.0796C54.2263 33.3807 54.9526 34.2654 55.1397 34.5448C55.1428 34.5494 55.1464 34.5529 55.1489 34.5574C55.1535 34.564 55.1571 34.571 55.1617 34.5776C55.2634 34.7231 55.7286 35.4819 54.9117 36.0917C53.3246 37.277 49.5578 40.1125 49.5199 40.1412C49.089 40.4649 49.0067 41.0717 49.3359 41.4962C49.6651 41.9202 50.2811 42.0012 50.7115 41.677C50.7493 41.6488 54.513 38.8154 56.0977 37.6325C57.5622 36.5389 57.5146 35.0046 57.0566 33.9774C61.6086 23.2016 61.423 23.6498 61.4624 23.5309C61.8452 22.3537 62.542 21.5631 63.759 21.8426C65.3018 22.2711 65.0579 23.9559 64.9766 24.3547Z" fill="#515151"/>
                        <path d="M38.6021 9.59291L35.9619 9.21526L34.7811 6.85819C34.2531 5.80378 32.7247 5.80378 32.1967 6.85819L31.0159 9.21526L28.3757 9.59291C27.1944 9.7621 26.722 11.1937 27.5772 12.0144L29.4875 13.8488L29.0366 16.439C28.8347 17.5982 30.0712 18.4829 31.1278 17.9355L33.4889 16.7124L35.8505 17.9355C36.9081 18.4834 38.1431 17.5962 37.9417 16.439L37.4903 13.8488L39.4011 12.0144C40.2557 11.1937 39.7834 9.7621 38.6021 9.59291ZM35.9236 12.6534C35.5842 12.9792 35.4293 13.449 35.5095 13.9092L35.828 15.7396L34.159 14.875C33.7394 14.658 33.2384 14.658 32.8182 14.8755L31.1498 15.7396L31.4688 13.9092C31.549 13.4485 31.3936 12.9792 31.0542 12.6529L29.7042 11.3568L31.5705 11.0899C32.0397 11.0225 32.4451 10.7324 32.6547 10.3135L33.4889 8.64827L34.3236 10.3135C34.5332 10.7324 34.9391 11.0225 35.4083 11.0899L37.2736 11.3568L35.9236 12.6534Z" fill="#515151"/>
                        <path d="M41.6758 34.2059L43.5022 30.159L47.9708 30.6444C49.0703 30.7642 49.8442 29.601 49.2932 28.6554L43.7174 19.0912C44.6426 17.7437 45.3061 16.1978 45.623 14.5155C45.7217 13.9908 45.37 13.4863 44.8373 13.3886C44.3057 13.2914 43.792 13.6378 43.6928 14.1625C42.7921 18.9436 38.5382 22.5062 33.492 22.5062C27.7761 22.5062 23.1152 17.924 23.1152 12.2843C23.1152 6.64822 27.7699 2.0625 33.492 2.0625C38.3072 2.0625 42.5657 5.41757 43.6167 10.0391C43.7353 10.5602 44.2607 10.8885 44.7893 10.7712C45.3178 10.6544 45.6506 10.1377 45.532 9.61659C44.2914 4.15923 39.3397 0.128906 33.492 0.128906C26.6883 0.128906 21.1529 5.58173 21.1529 12.2843C21.1529 14.802 21.9339 17.143 23.2701 19.0856L17.6907 28.6554C17.1325 29.6131 17.9315 30.7627 19.0131 30.6444C20.8196 30.448 21.6748 30.3553 23.4817 30.159L25.3087 34.2059C25.7585 35.2029 27.1678 35.2739 27.7188 34.3283L33.4843 24.4393H33.4996L39.2651 34.3283C39.8182 35.2764 41.2269 35.2004 41.6758 34.2059ZM23.4122 28.2213L19.9905 28.593L24.591 20.7025C25.2483 21.3777 25.9783 21.9704 26.7629 22.4739L23.4122 28.2213ZM26.6147 32.3403L25.1568 29.1106L28.4881 23.3974C29.4144 23.8023 30.4188 24.0953 31.3297 24.253L26.6147 32.3403ZM42.3934 20.7025L46.9934 28.593L43.4766 28.2108L40.1566 22.5162C40.9714 22.0011 41.7161 21.3964 42.3934 20.7025ZM38.4252 23.4292L41.7877 29.1972L40.3692 32.3403L35.6552 24.254C36.6402 24.0828 37.5874 23.7887 38.4252 23.4292Z" fill="#515151"/>
                    </g>
                    <defs>
                        <clipPath id="clip0_2582_9847"><rect width="67" height="66" fill="white"/></clipPath>
                    </defs>
                </svg>