<svg xmlns="http://www.w3.org/2000/svg" width="67" height="66" viewBox="0 0 67 66" fill="none" class="w-24">
                        <g clip-path="url(#clip0_2582_9864)">
                            <path d="M65.6633 27.1945C63.2945 26.4674 60.2076 27.0027 57.9758 28.5259C58.0857 27.6769 58.1695 26.8436 58.2329 26.0273C63.361 27.4685 66.6084 22.4587 66.658 19.2467C66.6703 18.4511 66.1346 17.7501 65.355 17.5417C63.0814 16.9339 60.1641 17.666 58.3188 19.2648C58.2891 18.6802 58.2513 18.1177 58.2074 17.5809C60.0358 16.0809 60.8 14.3397 60.5439 12.2585C60.2592 9.94777 58.8213 7.65918 56.9657 6.56398C56.2726 6.1551 55.3888 6.26085 54.8147 6.82078C53.2787 8.32133 52.4378 10.8823 52.7225 13.1931C52.9776 15.2647 54.1338 16.7707 56.2557 17.797C57.1017 28.2424 55.4077 46.6886 36.0185 58.0596C35.5528 58.3325 35.4 58.9261 35.6775 59.3849C35.9546 59.8436 36.5568 59.9942 37.0229 59.7207C40.4064 57.7368 43.4013 55.4754 46.0001 52.9481C47.5714 55.2075 49.4786 56.1884 51.9036 56.1884C54.7074 56.1884 57.7616 54.8016 59.336 52.8132C59.8845 52.1203 59.8865 51.1505 59.3401 50.4556C57.6154 48.2617 54.0567 46.7541 50.9712 47.105C51.4988 46.3492 51.9987 45.5753 52.471 44.7842C54.187 46.5169 56.1064 47.2616 58.5192 46.9303C61.2994 46.5486 64.1349 44.7525 65.4138 42.5626C65.8585 41.8007 65.7231 40.8405 65.0836 40.2277C62.8774 38.1128 58.6536 37.1329 55.5835 38.2991C55.8176 37.6732 56.016 37.1183 56.293 36.2381C62.518 38.858 66.7914 32.9233 66.9959 29.0798C67.0414 28.2248 66.4934 27.4493 65.6633 27.1945ZM59.8891 20.4949C61.2263 19.5025 63.2163 19.0422 64.6895 19.371C64.6031 20.856 63.6043 22.6133 62.2666 23.6053C61.1205 24.4553 59.954 24.5902 58.3852 24.0474C58.2891 22.4124 58.7431 21.3449 59.8891 20.4949ZM51.9021 48.9883C54.1078 48.9923 56.5823 50.1066 57.7826 51.6309C56.611 53.1052 54.1768 54.2548 51.8924 54.2548C49.9877 54.2518 48.6607 53.4612 47.4544 51.6163C48.5989 49.8745 49.8927 48.9883 51.9021 48.9883ZM58.489 39.7347C60.4304 39.7347 62.5083 40.4583 63.7086 41.6059C62.7246 43.2827 60.4299 44.7162 58.2482 45.0158C56.362 45.2747 54.9354 44.6744 53.4795 43.0143C54.5096 40.8254 55.9413 39.7347 58.489 39.7347ZM54.6716 12.9605C54.4697 11.3234 55.0626 9.39589 56.0891 8.30472C57.3506 9.12247 58.3939 10.8541 58.5953 12.4917C58.7681 13.895 58.3019 14.9565 57.0388 16.0225C55.5544 15.2848 54.8444 14.3638 54.6716 12.9605ZM61.923 34.1439C60.4631 35.1454 59.017 35.2441 57.0925 34.4722C57.026 32.4263 57.6221 31.1247 59.0815 30.1236C60.7729 28.9635 63.2669 28.5058 65.033 29.0264C64.9159 30.8392 63.6145 32.9837 61.923 34.1439Z" fill="#515151"/>
                            <path d="M30.9795 58.0595C11.5903 46.6886 9.89684 28.2424 10.7428 17.7969C12.8642 16.7712 14.0204 15.2651 14.276 13.1936C14.5602 10.8828 13.7194 8.3218 12.1833 6.82125C11.6098 6.26081 10.7254 6.15507 10.0328 6.56394C8.17675 7.65965 6.73883 9.94824 6.45462 12.259C6.19801 14.3396 6.96272 16.0809 8.79118 17.5809C8.74722 18.1182 8.70939 18.6801 8.67974 19.2647C6.83238 17.6645 3.91564 16.9349 1.64349 17.5416C0.863955 17.7501 0.327737 18.4515 0.340517 19.2471C0.389589 22.4431 3.61967 27.4735 8.76562 26.0278C8.829 26.8435 8.91284 27.6769 9.02274 28.5264C6.79097 27.0027 3.70453 26.4674 1.33525 27.1945C0.505113 27.4493 -0.0428607 28.2247 0.00263342 29.0803C0.202501 32.8372 4.39767 38.8731 10.7055 36.2386C10.9775 37.1032 11.1748 37.6571 11.415 38.2996C8.3439 37.1334 4.12062 38.1148 1.91492 40.2281C1.27545 40.841 1.13948 41.8012 1.5847 42.5631C2.86314 44.753 5.6986 46.5491 8.47936 46.9308C10.8665 47.2596 12.7931 46.536 14.527 44.7847C14.9998 45.5757 15.4998 46.3497 16.0273 47.1055C12.9414 46.7545 9.3826 48.2621 7.65842 50.4561C7.1125 51.1509 7.11403 52.1203 7.66251 52.8136C9.20216 54.7583 12.2237 56.1889 15.1097 56.1889C17.5864 56.1848 19.4654 55.1526 20.9984 52.9486C23.5972 55.4759 26.5922 57.7373 29.9756 59.7212C30.4418 59.9946 31.0439 59.8436 31.321 59.3853C31.5986 58.9261 31.4457 58.3329 30.9795 58.0595ZM8.61329 24.0474C7.04451 24.5902 5.87802 24.4552 4.73198 23.6053C3.39425 22.6133 2.39542 20.8559 2.30903 19.371C3.78171 19.0422 5.7717 19.5024 7.10943 20.4949C8.25598 21.3449 8.70939 22.4124 8.61329 24.0474ZM9.90604 34.4722C7.98148 35.2441 6.53487 35.1449 5.07548 34.1439C3.38402 32.9837 2.0831 30.8391 1.96553 29.0264C3.73213 28.5057 6.22562 28.9634 7.91708 30.1236C9.37647 31.1246 9.97249 32.4263 9.90604 34.4722ZM8.4032 12.4916C8.6046 10.8541 9.6479 9.12243 10.9095 8.30468C11.9359 9.39586 12.5283 11.3234 12.3269 12.9604C12.1542 14.3638 11.4441 15.2848 9.9592 16.0224C8.69661 14.9565 8.23042 13.895 8.4032 12.4916ZM8.75028 45.0153C6.56912 44.7162 4.27499 43.2831 3.29099 41.6073C4.70284 40.2599 7.30725 39.5005 9.48841 39.7996C11.5213 40.0786 12.6582 41.1844 13.52 43.0092C12.0632 44.6744 10.6375 45.2741 8.75028 45.0153ZM15.1062 54.2548C15.1021 54.2548 15.0985 54.2548 15.0944 54.2548C12.8948 54.2548 10.4264 53.1535 9.21647 51.6318C10.4177 50.1101 12.8892 48.9882 15.1082 48.9882C17.1186 48.9882 18.415 49.8981 19.5441 51.6112C18.3383 53.4612 17.0108 54.2517 15.1062 54.2548Z" fill="#515151"/>
                            <path d="M31.1046 37.6239L33.5792 36.3424L36.0538 37.6239C37.1236 38.1778 38.376 37.282 38.1715 36.1082L37.6992 33.3936L39.7009 31.4716C40.5669 30.6398 40.0884 29.1906 38.8923 29.0194L36.1253 28.6231L34.8883 26.1537C34.3531 25.0852 32.8053 25.0857 32.2706 26.1537L31.033 28.6231L28.2666 29.0194C27.0699 29.1906 26.592 30.6403 27.4574 31.4716L29.4597 33.3936L28.9868 36.1082C28.7834 37.279 30.0322 38.1793 31.1046 37.6239ZM31.5774 30.4993C32.0533 30.4313 32.4643 30.1367 32.6765 29.7128L33.5792 27.9106L34.4819 29.7128C34.6945 30.1372 35.1055 30.4313 35.5809 30.4993L37.6 30.7883L36.1391 32.1912C35.7951 32.5215 35.6382 32.9974 35.7194 33.4636L36.064 35.4446L34.2585 34.5095C33.8327 34.2889 33.3251 34.2889 32.8998 34.5095L31.0939 35.4446L31.4389 33.4636C31.5202 32.9969 31.3633 32.521 31.0192 32.1912L29.5578 30.7883L31.5774 30.4993Z" fill="#515151"/>
                            <path d="M35.9949 42.9605C41.1608 41.8633 44.9895 37.3345 44.9895 31.9768C44.9895 25.7797 39.8716 20.7383 33.5807 20.7383C27.2897 20.7383 22.1719 25.7797 22.1719 31.9768C22.1719 37.2433 25.8855 41.7495 30.985 42.9192C31.5125 43.0396 32.0405 42.7168 32.1637 42.1967C32.2864 41.6765 31.9582 41.1568 31.4302 41.036C27.1348 40.0506 24.1348 36.3254 24.1348 31.9768C24.1348 26.8457 28.3724 22.6719 33.5807 22.6719C38.789 22.6719 43.0266 26.8457 43.0266 31.9768C43.0266 36.3294 39.8952 40.1538 35.5809 41.0702C35.0513 41.1825 34.7145 41.6971 34.8284 42.2193C34.9419 42.738 35.4608 43.0733 35.9949 42.9605Z" fill="#3F3F3F"/>
                            <path d="M49.5569 34.4578C49.6408 33.9301 49.2748 33.4356 48.7391 33.353C48.2018 33.2704 47.7014 33.631 47.6176 34.1587C46.5303 41.0033 40.6278 45.9707 33.5834 45.9707C25.7502 45.9707 19.3775 39.6931 19.3775 31.9768C19.3775 24.2601 25.7502 17.9824 33.5834 17.9824C40.5864 17.9824 46.629 23.1211 47.639 29.936C47.7178 30.4647 48.2177 30.8303 48.7518 30.7527C49.2886 30.6757 49.6597 30.1847 49.5815 29.6565C48.4273 21.8687 41.6169 16.0488 33.5834 16.0488C24.6676 16.0488 17.4141 23.1941 17.4141 31.9768C17.4141 40.7591 24.6676 47.9043 33.5834 47.9043C41.6384 47.9043 48.3444 42.0889 49.5569 34.4578Z" fill="#515151"/>
                        </g>
                        <defs>
                            <clipPath id="clip0_2582_9864"><rect width="67" height="66" fill="white"/></clipPath>
                        </defs>
                    </svg>