<svg xmlns="http://www.w3.org/2000/svg" width="66" height="66" viewBox="0 0 66 66" fill="none">
                    <g clip-path="url(#clip0_6_873)">
                        <path d="M65.6343 41.3921C65.5319 41.3106 63.0946 39.4006 60.4479 39.8504C59.9161 39.9408 59.4245 40.1193 58.9766 40.3462C59.398 38.4832 59.6784 36.5271 59.8162 34.4854C60.873 34.3141 62.7685 33.8116 63.9755 32.3499C65.6847 30.2796 65.2437 27.2147 65.2241 27.0853C65.1501 26.5972 64.7213 26.2447 64.2275 26.2624C64.0967 26.2677 61.0037 26.4148 59.2944 28.4849C59.1552 28.6535 59.0317 28.8293 58.9196 29.0089C58.8145 28.8471 58.6999 28.6888 58.5722 28.5363C56.848 26.4785 53.7539 26.3538 53.6231 26.3494C53.1329 26.3347 52.7028 26.6908 52.6324 27.1794C52.6137 27.309 52.1949 30.3771 53.919 32.4349C55.0554 33.7913 56.7868 34.3077 57.8728 34.5035C57.7571 36.1434 57.5487 37.717 57.2456 39.2214C57.1634 39.055 57.072 38.8908 56.9682 38.7305C55.5074 36.4782 52.4516 35.9775 52.3222 35.9574C51.835 35.8813 51.3673 36.1842 51.2379 36.6607C51.2036 36.787 50.4143 39.7814 51.8752 42.0338C52.8687 43.5657 54.5993 44.2868 55.6458 44.5981C55.0893 45.9712 54.4339 47.2696 53.68 48.4919C53.6657 48.4235 53.6507 48.3552 53.6332 48.2867C52.9662 45.6861 50.2293 44.2379 50.1131 44.1775C49.6748 43.95 49.1356 44.0882 48.8611 44.4986C48.7884 44.6075 47.086 47.1942 47.7528 49.7946C48.1328 51.2762 49.1844 52.3831 50.0407 53.0731C49.4508 53.6578 48.8301 54.2182 48.1752 54.7507C47.4497 55.3406 46.7259 55.8606 46.021 56.3192C46.2941 55.679 46.4848 54.9559 46.4848 54.1825C46.4848 51.4978 44.1932 49.4152 44.0957 49.3279C43.7279 48.9985 43.1712 48.9985 42.8034 49.3279C42.7059 49.4152 40.4143 51.4978 40.4143 54.1825C40.4143 56.0037 41.4684 57.547 42.1772 58.3791C40.3756 59.154 39.1506 59.4269 39.116 59.4344C38.6065 59.5422 38.2682 60.052 38.3652 60.5633C38.4649 61.0891 38.9926 61.4401 39.5162 61.33C39.6272 61.3066 41.1532 60.9744 43.332 59.9957C43.8266 60.9901 44.7725 62.4363 46.3232 63.1435C47.0837 63.4904 47.8829 63.6109 48.6271 63.6109C50.2732 63.6109 51.6489 63.0208 51.7316 62.9847C52.1839 62.7867 52.4149 62.2802 52.2678 61.8088C52.2288 61.6838 51.2849 58.7347 48.8424 57.6205C48.5618 57.4925 48.2757 57.3965 47.9891 57.3248C48.4299 57.0114 48.8754 56.6755 49.3224 56.3147C50.0511 55.7265 50.7448 55.1037 51.4031 54.4485C52.026 55.3674 53.1607 56.6797 54.7982 57.1728C55.2985 57.3235 55.8017 57.3844 56.289 57.3844C58.3056 57.3842 60.0455 56.34 60.1355 56.285C60.5569 56.0277 60.7175 55.4946 60.5081 55.0474C60.4526 54.9288 59.1192 52.1341 56.5484 51.36C55.7361 51.1154 54.9156 51.1075 54.1694 51.2129C54.9391 50.1525 55.6361 49.032 56.2547 47.8524C56.723 46.9594 57.1443 46.0308 57.5238 45.0722C58.3233 45.4835 59.4339 45.9032 60.6401 45.9032C60.9112 45.9032 61.1872 45.8819 61.4654 45.8348C64.1122 45.3848 65.7814 42.7768 65.8511 42.666C66.114 42.2484 66.0207 41.6996 65.6343 41.3921ZM48.0382 59.3833C49.0097 59.8265 49.6609 60.7844 50.033 61.4999C49.2484 61.688 48.0983 61.8242 47.1269 61.381C46.1554 60.9379 45.5042 59.9799 45.1321 59.2645C45.9169 59.0763 47.0669 58.9403 48.0382 59.3833ZM43.4494 51.4892C43.9463 52.125 44.5473 53.1149 44.5473 54.1825C44.5473 55.2496 43.9468 56.239 43.4506 56.8744C42.9538 56.2372 42.3516 55.2452 42.3516 54.1825C42.3517 53.1148 42.9529 52.1247 43.4494 51.4892ZM60.7883 29.7184C61.4682 28.895 62.5621 28.5144 63.3495 28.3405C63.3279 29.1471 63.1612 30.2932 62.4814 31.1164C61.802 31.9393 60.7091 32.3199 59.9219 32.494C59.9446 31.6864 60.1117 30.5379 60.7883 29.7184ZM55.404 31.1908C54.7187 30.3728 54.5436 29.2289 54.5158 28.4231C55.3059 28.5927 56.4045 28.9662 57.087 29.7807C57.7728 30.5991 57.9477 31.7443 57.9752 32.5502C57.186 32.3818 56.0896 32.0092 55.404 31.1908ZM53.5005 40.9796C52.9194 40.0836 52.8852 38.9258 52.956 38.1226C53.7188 38.3857 54.7617 38.8892 55.3427 39.7849C55.9238 40.6808 55.958 41.8386 55.8872 42.6418C55.1243 42.3788 54.0815 41.8753 53.5005 40.9796ZM50.0232 46.4333C50.6626 46.9272 51.4924 47.7384 51.7564 48.7678C52.0214 49.8014 51.6856 50.9089 51.3627 51.6478C50.7232 51.1539 49.8935 50.3427 49.6295 49.3133C49.3645 48.2797 49.7003 47.1722 50.0232 46.4333ZM55.9897 53.2154C57.0122 53.5233 57.7869 54.3845 58.2521 55.0431C57.5002 55.3355 56.3791 55.6259 55.3566 55.3178C54.3341 55.0099 53.5595 54.1487 53.0943 53.4901C53.8461 53.1976 54.9672 52.9073 55.9897 53.2154ZM61.1405 43.925C60.0885 44.1041 59.0125 43.6777 58.3029 43.295C58.8479 42.6986 59.7249 41.9386 60.7726 41.7605C61.8244 41.5813 62.9005 42.0078 63.6102 42.3906C63.0652 42.987 62.1882 43.7469 61.1405 43.925Z" fill="#515151"/>
                        <path d="M26.8829 59.4342C26.8598 59.4293 25.6339 59.162 23.8203 58.382C24.5292 57.5505 25.5856 56.0057 25.5856 54.1825C25.5856 51.4979 23.294 49.4152 23.1965 49.3279C22.8287 48.9985 22.272 48.9985 21.9042 49.3279C21.8066 49.4152 19.5151 51.4979 19.5151 54.1825C19.5151 54.9571 19.7064 55.6809 19.9801 56.3218C19.2983 55.8775 18.5978 55.3751 17.8946 54.8073C17.2139 54.2578 16.5699 53.6787 15.9589 53.0732C16.8153 52.3832 17.8671 51.2762 18.247 49.7945C18.9139 47.194 17.2116 44.6074 17.1387 44.4985C16.8643 44.088 16.325 43.9498 15.8868 44.1774C15.7707 44.2379 13.0337 45.6861 12.3667 48.2866C12.349 48.3554 12.3339 48.4243 12.3194 48.4931C11.5654 47.2705 10.9098 45.9717 10.3533 44.5982C11.3998 44.2871 13.131 43.566 14.1246 42.0338C15.5855 39.7814 14.7961 36.787 14.7618 36.6607C14.6324 36.1841 14.1649 35.8811 13.6775 35.9574C13.5481 35.9776 10.4922 36.4782 9.0316 38.7306C8.92762 38.8907 8.83631 39.055 8.75416 39.2215C8.45116 37.7173 8.2427 36.1436 8.1271 34.5035C9.21306 34.3077 10.9443 33.7913 12.0809 32.4349C13.805 30.377 13.3862 27.309 13.3674 27.1794C13.297 26.6908 12.8711 26.3341 12.3768 26.3494C12.246 26.3538 9.15184 26.4786 7.42771 28.5364C7.3001 28.6888 7.18554 28.8471 7.08027 29.0089C6.96816 28.8293 6.84469 28.6536 6.70546 28.485C4.99617 26.4147 1.90309 26.2677 1.77238 26.2624C1.2768 26.2419 0.849678 26.597 0.775799 27.0853C0.756167 27.2147 0.315221 30.2796 2.02437 32.3499C3.23123 33.8116 5.12675 34.3141 6.18366 34.4854C6.32147 36.5271 6.60187 38.4832 7.02331 40.3462C6.57539 40.1193 6.08382 39.9408 5.55194 39.8504C2.90549 39.4006 0.468015 41.3106 0.365592 41.3921C-0.02072 41.6995 -0.114101 42.2484 0.148994 42.6663C0.218739 42.7771 1.88798 45.3851 4.53469 45.835C4.81303 45.8823 5.08878 45.9035 5.36001 45.9035C6.56609 45.9035 7.67686 45.4837 8.47622 45.0725C8.85555 46.0311 9.27687 46.9596 9.74533 47.8526C10.364 49.0321 11.0609 50.1528 11.8307 51.2132C11.0844 51.1078 10.264 51.1157 9.45162 51.3602C6.88098 52.1342 5.54742 54.9289 5.49188 55.0475C5.28252 55.4947 5.44306 56.0278 5.86451 56.2851C5.95453 56.34 7.69429 57.3845 9.71097 57.3845C10.1982 57.3845 10.7016 57.3235 11.2018 57.1729C12.8393 56.6798 13.974 55.3676 14.5969 54.4486C15.2552 55.104 15.9489 55.7266 16.6776 56.3148C17.1247 56.6756 17.5701 57.0115 18.0109 57.325C17.7243 57.3966 17.4384 57.4926 17.1577 57.6207C14.7151 58.7349 13.7712 61.684 13.7323 61.8091C13.5853 62.2804 13.8163 62.7869 14.2686 62.9849C14.3512 63.0211 15.7266 63.6113 17.373 63.6112C18.1171 63.6112 18.9167 63.4906 19.677 63.1438C21.2276 62.4364 22.1736 60.9903 22.6681 59.996C24.8468 60.9746 26.3729 61.3068 26.484 61.3303C27.0084 61.4403 27.534 61.0891 27.6349 60.5636C27.7329 60.052 27.3922 59.5414 26.8829 59.4342ZM4.85927 43.925C3.8065 43.746 2.93119 42.9874 2.38808 42.3914C3.09819 42.0081 4.17486 41.5815 5.22724 41.7604C6.27923 41.9391 7.15402 42.6969 7.69739 43.2927C6.98586 43.6756 5.90687 44.1034 4.85927 43.925ZM14.2435 48.768C14.5086 47.7343 15.3359 46.925 15.9745 46.4328C16.2974 47.1734 16.6344 48.284 16.3704 49.3133C16.1053 50.3469 15.2779 51.1562 14.6394 51.6485C14.3165 50.9077 13.9795 49.7974 14.2435 48.768ZM10.6572 39.7849C11.2383 38.8889 12.2813 38.3856 13.0438 38.1225C13.1147 38.9262 13.0803 40.0839 12.4994 40.9796C11.9183 41.8756 10.8752 42.3789 10.1128 42.642C10.0419 41.8382 10.0762 40.6806 10.6572 39.7849ZM8.9129 29.7807C9.59821 28.9627 10.6939 28.59 11.4824 28.4217C11.4538 29.2292 11.2784 30.3763 10.596 31.1908C9.91065 32.0088 8.815 32.3815 8.02649 32.5498C8.0549 31.7425 8.23043 30.5953 8.9129 29.7807ZM3.51848 31.1164C2.83859 30.293 2.67197 29.1468 2.65027 28.3406C3.43827 28.5145 4.53185 28.8952 5.21161 29.7184C5.8915 30.5418 6.05811 31.6881 6.07994 32.4943C5.29182 32.3203 4.19811 31.9397 3.51848 31.1164ZM10.6432 55.3177C9.62082 55.6259 8.49933 55.3353 7.74776 55.0431C8.21325 54.384 8.98794 53.5231 10.0102 53.2153C11.0328 52.9071 12.1541 53.1976 12.9056 53.4899C12.4401 54.1491 11.6655 55.0099 10.6432 55.3177ZM18.8729 61.381C17.9015 61.8242 16.7513 61.6879 15.9669 61.4999C16.3391 60.7841 16.9903 59.8264 17.9616 59.3834C18.9331 58.9401 20.0834 59.0763 20.8675 59.2644C20.4954 59.9803 19.8443 60.938 18.8729 61.381ZM22.5503 51.4892C23.0472 52.125 23.6482 53.1149 23.6482 54.1825C23.6482 55.2496 23.0477 56.239 22.5515 56.8745C22.0548 56.2372 21.4525 55.2453 21.4525 54.1825C21.4525 53.1148 22.0538 52.1247 22.5503 51.4892Z" fill="#515151"/>
                        <path d="M47.8796 31.8782C49.4452 29.3634 50.7014 26.4486 51.6133 23.215C51.7585 22.7002 51.4587 22.1651 50.9439 22.0199C50.4289 21.8746 49.8938 22.1745 49.7486 22.6894C48.8864 25.7473 47.7042 28.4944 46.235 30.8542C43.2551 35.6407 39.4855 38.2333 36.1596 40.5207C35.0989 41.2503 34.0081 42.0005 33.0002 42.7963C31.9922 42.0005 30.9015 41.2503 29.8407 40.5207C26.5149 38.2333 22.7451 35.6407 19.7653 30.8542C16.6889 25.9126 14.9549 19.5327 14.4745 11.3742C20.8898 10.771 26.3955 9.01589 30.851 6.15155C31.6047 5.66707 32.3249 5.15134 33.0002 4.61314C33.6754 5.15134 34.3956 5.66694 35.1494 6.15155C39.6048 9.01576 45.1104 10.771 51.5257 11.3742C51.3853 13.7472 51.1353 15.9951 50.7809 18.0682C50.6907 18.5956 51.0452 19.096 51.5725 19.1863C52.1 19.2758 52.6004 18.9219 52.6906 18.3947C53.1043 15.9743 53.3799 13.3293 53.5101 10.5332C53.5345 10.0096 53.138 9.56171 52.6154 9.52232C46.1195 9.03203 40.5956 7.34975 36.197 4.52209C35.2773 3.93093 34.4135 3.29134 33.6294 2.62126C33.267 2.31167 32.7332 2.31167 32.3708 2.62126C31.5867 3.29134 30.7228 3.93093 29.8032 4.52209C25.4045 7.34962 19.8805 9.03203 13.3846 9.52232C12.8621 9.56171 12.4655 10.0096 12.49 10.5332C12.9064 19.4794 14.748 26.4613 18.1204 31.8782C21.3141 37.0078 25.2606 39.7222 28.7426 42.117C30.0455 43.0131 31.2763 43.8596 32.3756 44.7863C32.7319 45.0867 33.2679 45.0867 33.6244 44.7863C34.7236 43.8596 35.9544 43.0131 37.2573 42.117C40.7393 39.7221 44.6859 37.0078 47.8796 31.8782Z" fill="#515151"/>
                        <path d="M45.1257 19.1022C44.996 18.7031 44.624 18.4328 44.2044 18.4328H36.3489L33.9212 10.9617C33.7929 10.5671 33.4148 10.2924 32.9999 10.2924C32.5851 10.2924 32.2069 10.5671 32.0786 10.9617L29.6511 18.4328H21.7956C21.3872 18.4328 21.0138 18.699 20.8804 19.0848C20.7425 19.4833 20.885 19.9373 21.2262 20.1852L27.5816 24.8026L25.1541 32.2739C25.0299 32.6556 25.1604 33.0856 25.4757 33.3341C25.8124 33.5994 26.2978 33.609 26.6447 33.3571L33 28.7396L39.3554 33.3571C39.7194 33.6214 40.2314 33.5961 40.5677 33.2976C40.8529 33.0446 40.9639 32.6367 40.846 32.2739L38.4185 24.8026L44.7739 20.1852C45.1133 19.9385 45.2554 19.5013 45.1257 19.1022ZM36.7102 23.6489C36.3707 23.8956 36.2286 24.3328 36.3583 24.732L38.082 30.0372L33.5692 26.7585C33.3995 26.6351 33.1997 26.5734 32.9999 26.5734C32.8001 26.5734 32.6003 26.6351 32.4306 26.7585L27.9178 30.0372L29.6415 24.732C29.7712 24.3329 29.6291 23.8956 29.2896 23.6489L24.7769 20.3702H30.355C30.7747 20.3702 31.1466 20.1 31.2763 19.7009L33 14.3957L34.7238 19.7009C34.8535 20.1 35.2254 20.3702 35.6451 20.3702H41.2232L36.7102 23.6489Z" fill="#515151"/>
                    </g>
                    <defs>
                        <clipPath id="clip0_6_873"><rect width="66" height="66" fill="white"/></clipPath>
                    </defs>
                </svg>